<svg xmlns="http://www.w3.org/2000/svg" xmlns:xlink="http://www.w3.org/1999/xlink" width="1016" height="16" viewBox="0 0 1016 16"><defs><path id="6z99a" d="M459.5 1786a6.5 6.5 0 1 1 0 13 6.5 6.5 0 0 1 0-13z"/><path id="6z99b" d="M709.5 1786a6.5 6.5 0 1 1 0 13 6.5 6.5 0 0 1 0-13z"/><path id="6z99c" d="M959.5 1786a6.5 6.5 0 1 1 0 13 6.5 6.5 0 0 1 0-13z"/><path id="6z99d" d="M1209.5 1786a6.5 6.5 0 1 1 0 13 6.5 6.5 0 0 1 0-13z"/><path id="6z99e" d="M1459.5 1786a6.5 6.5 0 1 1 0 13 6.5 6.5 0 0 1 0-13z"/></defs><g><g transform="translate(-451 -1784)"/><g transform="translate(-451 -1784)"><use fill="#fff" xlink:href="#6z99a"/><use fill="#ff3" xlink:href="#6z99a"/></g><g transform="translate(-451 -1784)"><use fill="#fff" xlink:href="#6z99b"/><use fill="#ff3" xlink:href="#6z99b"/></g><g transform="translate(-451 -1784)"><use fill="#fff" xlink:href="#6z99c"/><use fill="#ff3" xlink:href="#6z99c"/></g><g transform="translate(-451 -1784)"><use fill="#fff" xlink:href="#6z99d"/><use fill="#ff3" xlink:href="#6z99d"/></g><g transform="translate(-451 -1784)"><use fill="#fff" xlink:href="#6z99e"/><use fill="#ff3" xlink:href="#6z99e"/></g></g></svg>