<svg xmlns="http://www.w3.org/2000/svg" xmlns:xlink="http://www.w3.org/1999/xlink" width="30" height="35" viewBox="0 0 30 35"><defs><path id="sidya" d="M84 1338H61a2 2 0 0 1-2-2v-21c0-1.1.9-2 2-2h5.5a1.5 1.5 0 0 1 0 3H62v19h21v-19h-4.5a1.5 1.5 0 0 1 0-3H84a2 2 0 0 1 2 2v21a2 2 0 0 1-2 2zm-5-15.5c0 .41-.17.79-.44 1.06l-5 5a1.5 1.5 0 0 1-2.12 0l-5-5a1.5 1.5 0 0 1 1.06-2.56c.41 0 .79.17 1.06.44l2.44 2.44v-16.38a1.5 1.5 0 0 1 3 0v16.38l2.44-2.44a1.5 1.5 0 0 1 2.56 1.06z"/></defs><g><g transform="translate(-58 -1304)"><use fill="#d8d8d8" xlink:href="#sidya"/></g></g></svg>